<?xml version="1.0" standalone="no"?>
<!DOCTYPE svg PUBLIC "-//W3C//DTD SVG 20010904//EN"
 "http://www.w3.org/TR/2001/REC-SVG-20010904/DTD/svg10.dtd">
<svg version="1.0" xmlns="http://www.w3.org/2000/svg"
 width="225.000000pt" height="225.000000pt" viewBox="0 0 225.000000 225.000000"
 preserveAspectRatio="xMidYMid meet">
<metadata>
Created by potrace 1.16, written by Peter Selinger 2001-2019
</metadata>
<g transform="translate(0.000000,225.000000) scale(0.100000,-0.100000)"
fill="#000000" stroke="none">
<path d="M0 1125 l0 -1125 1125 0 1125 0 0 1125 0 1125 -1125 0 -1125 0 0
-1125z m1171 1004 c16 -16 20 -29 16 -55 -3 -18 -1 -36 5 -40 5 -3 7 -15 4
-27 -3 -12 4 -32 20 -52 l24 -32 -66 -63 c-68 -66 -72 -78 -31 -104 14 -9 28
0 77 49 l60 60 25 -30 c28 -34 28 -32 -26 -172 -21 -56 -39 -106 -39 -112 0
-5 19 -11 42 -13 31 -2 44 -8 46 -20 2 -12 -3 -18 -17 -18 -11 0 -23 -5 -26
-10 -8 -13 43 -83 54 -76 5 3 16 -1 27 -8 15 -12 16 -16 5 -30 -7 -9 -22 -16
-32 -16 -10 0 -26 -11 -35 -25 -16 -24 -16 -27 1 -39 23 -16 13 -46 -14 -46
-19 0 -20 -5 -15 -67 7 -91 42 -357 54 -413 24 -111 73 -320 86 -365 9 -34 21
-53 37 -60 15 -7 23 -20 24 -40 1 -16 5 -47 9 -68 4 -25 2 -44 -9 -60 -10 -16
-12 -28 -5 -40 5 -10 6 -22 3 -27 -4 -6 -134 -10 -351 -10 -304 0 -345 2 -351
16 -3 8 -1 20 5 26 8 8 6 18 -5 34 -11 17 -13 35 -9 61 4 21 8 52 9 68 1 20 9
33 24 40 23 10 39 50 63 160 6 28 22 96 36 153 26 109 69 398 77 520 4 66 3
72 -15 72 -26 0 -35 30 -13 46 17 12 17 15 1 39 -9 14 -25 25 -35 25 -22 0
-45 25 -36 40 3 5 15 10 25 10 22 0 75 64 65 80 -3 5 -15 10 -26 10 -14 0 -19
6 -17 18 2 12 15 18 46 20 26 2 42 8 42 16 0 7 -14 46 -30 87 -17 41 -37 93
-45 117 l-15 43 69 93 c50 66 68 99 65 114 -3 11 -1 23 4 26 6 4 8 22 5 40 -6
40 23 76 62 76 14 0 35 -10 46 -21z"/>
</g>
</svg>
