<?xml version="1.0" standalone="no"?>
<!DOCTYPE svg PUBLIC "-//W3C//DTD SVG 20010904//EN"
 "http://www.w3.org/TR/2001/REC-SVG-20010904/DTD/svg10.dtd">
<svg version="1.0" xmlns="http://www.w3.org/2000/svg"
 width="404.000000pt" height="712.000000pt" viewBox="0 0 404.000000 712.000000"
 preserveAspectRatio="xMidYMid meet">
<metadata>
Created by potrace 1.16, written by Peter Selinger 2001-2019
</metadata>
<g transform="translate(0.000000,712.000000) scale(0.100000,-0.100000)"
fill="#000000" stroke="none">
<path d="M1970 6362 c-37 -18 -61 -57 -79 -128 -16 -60 -71 -123 -232 -266
-274 -243 -359 -383 -359 -595 0 -141 39 -277 148 -518 56 -124 72 -174 72
-227 0 -20 9 -53 21 -72 26 -45 37 -175 20 -229 -11 -33 -16 -36 -59 -42 -85
-11 -91 -14 -98 -43 -11 -53 -23 -71 -51 -78 -75 -16 -104 -40 -118 -97 -10
-37 19 -84 66 -107 24 -13 77 -25 132 -31 50 -6 99 -15 109 -20 59 -32 117
-461 104 -769 -12 -265 -36 -400 -111 -627 -81 -243 -189 -438 -264 -477 -47
-25 -69 -54 -86 -113 -26 -89 -54 -129 -212 -300 -222 -240 -260 -311 -214
-407 12 -24 56 -76 97 -115 40 -39 74 -73 74 -75 0 -2 -22 -12 -49 -21 -48
-16 -79 -41 -100 -82 -15 -30 -14 -49 6 -90 32 -68 54 -72 462 -84 482 -14
1880 -7 1936 10 67 21 85 45 85 112 0 68 -22 101 -97 144 l-46 28 30 12 c103
43 172 186 143 295 -17 63 -55 114 -196 261 -142 147 -213 248 -238 338 -17
61 -21 66 -95 114 -69 45 -194 294 -261 518 -57 194 -90 434 -90 663 0 252 55
602 102 652 14 16 37 24 86 29 125 13 212 70 212 139 0 47 -17 64 -90 89 -59
20 -65 25 -75 59 -14 52 -27 62 -97 73 -71 11 -75 18 -77 120 -1 79 13 134 37
151 16 11 20 25 20 71 -1 62 12 100 116 337 77 174 106 285 106 407 0 109 -16
173 -66 270 -61 116 -207 279 -250 279 -22 0 -57 -61 -168 -296 -115 -241
-185 -371 -213 -396 -55 -48 -100 -19 -90 57 9 61 76 230 182 455 150 320 151
321 134 330 -86 49 -138 118 -139 185 0 43 -35 94 -75 111 -45 18 -62 18 -105
-4z"/>
</g>
</svg>
