<?xml version="1.0" standalone="no"?>
<!DOCTYPE svg PUBLIC "-//W3C//DTD SVG 20010904//EN"
 "http://www.w3.org/TR/2001/REC-SVG-20010904/DTD/svg10.dtd">
<svg version="1.0" xmlns="http://www.w3.org/2000/svg"
 width="4675.000000pt" height="4676.000000pt" viewBox="0 0 4675.000000 4676.000000"
 preserveAspectRatio="xMidYMid meet">

<g transform="translate(0.000000,4676.000000) scale(0.100000,-0.100000)"
fill="#000000" stroke="none">
<path d="M23595 37946 c-125 -41 -433 -226 -622 -373 -565 -440 -974 -1087
-1125 -1776 l-23 -105 -80 -7 c-262 -21 -453 -85 -656 -220 -142 -94 -298
-249 -474 -470 -2317 -2906 -3579 -4493 -3614 -4545 -91 -135 -169 -322 -206
-490 -9 -42 -19 -145 -22 -235 -9 -256 29 -439 136 -660 73 -150 156 -267 274
-384 120 -119 234 -200 382 -272 201 -97 383 -139 610 -139 141 0 213 9 345
41 l85 21 50 86 c126 216 297 433 492 622 159 155 258 235 443 358 242 162
536 300 799 376 158 46 252 60 411 59 158 0 245 -13 394 -59 537 -168 1087
-122 1587 133 440 223 813 634 989 1088 13 33 26 64 31 68 23 27 31 -664 10
-928 -77 -973 -353 -1863 -832 -2683 -94 -160 -135 -218 -297 -421 -278 -346
-508 -596 -767 -830 -215 -195 -321 -283 -850 -706 -269 -216 -556 -449 -636
-518 -575 -495 -1070 -1056 -1482 -1680 -678 -1026 -1125 -2198 -1296 -3402
-62 -436 -80 -694 -88 -1265 -7 -563 4 -680 83 -919 112 -338 363 -653 669
-841 164 -101 374 -180 545 -204 l95 -14 -100 -1 c-77 -1 -110 -6 -145 -22
-95 -43 -168 -145 -177 -248 -10 -112 -1 -125 362 -563 l329 -398 4151 0 4151
0 329 398 c363 438 372 451 362 563 -9 103 -82 205 -177 248 -38 17 -68 21
-190 22 l-145 1 88 14 c581 91 1037 460 1240 1004 77 206 99 391 80 676 -130
2053 1 4269 363 6164 30 157 59 314 65 349 33 218 201 898 354 1431 117 410
172 632 224 905 164 857 186 1741 65 2570 -194 1331 -764 2553 -1681 3607
-149 172 -530 549 -708 702 -266 229 -544 435 -825 614 -415 264 -1008 556
-1409 693 -491 168 -1444 399 -1648 399 l-53 0 0 980 c0 660 -3 995 -11 1029
-14 65 -45 111 -95 138 -52 29 -109 36 -159 19z"/>
<path d="M19043 15218 c-349 -395 -782 -793 -1218 -1120 -298 -223 -530 -376
-921 -604 -339 -197 -442 -262 -571 -357 -347 -257 -527 -536 -574 -885 -24
-182 6 -406 80 -583 101 -244 325 -469 572 -576 91 -39 253 -83 307 -83 57 0
24 -16 -58 -28 -372 -56 -721 -350 -846 -713 -58 -171 -57 -153 -61 -836 l-4
-633 7626 0 7626 0 -4 633 c-4 691 -3 672 -66 847 -134 365 -470 647 -841 702
-82 12 -115 28 -58 28 54 0 216 44 307 83 117 51 243 137 337 232 335 334 419
846 210 1280 -64 134 -143 241 -268 362 -167 161 -306 256 -772 527 -391 228
-623 381 -921 604 -436 327 -865 721 -1217 1119 l-171 193 -4162 0 -4162 0
-170 -192z"/>
</g>
</svg>
