<?xml version="1.0" standalone="no"?>
<!DOCTYPE svg PUBLIC "-//W3C//DTD SVG 20010904//EN"
 "http://www.w3.org/TR/2001/REC-SVG-20010904/DTD/svg10.dtd">
<svg version="1.0" xmlns="http://www.w3.org/2000/svg"
 width="400.000000pt" height="400.000000pt" viewBox="0 0 400.000000 400.000000"
 preserveAspectRatio="xMidYMid meet">
<metadata>
Created by potrace 1.16, written by Peter Selinger 2001-2019
</metadata>
<g transform="translate(0.000000,400.000000) scale(0.100000,-0.100000)"
fill="#000000" stroke="none">
<path d="M1922 3504 c-38 -26 -55 -72 -49 -128 3 -28 8 -58 12 -67 4 -11 -11
-37 -44 -76 -28 -34 -51 -63 -51 -66 0 -3 -18 -32 -40 -65 -66 -98 -94 -182
-94 -282 0 -68 5 -95 24 -135 16 -35 23 -65 21 -101 -2 -42 3 -57 24 -82 33
-40 37 -122 5 -122 -11 0 -34 -13 -51 -28 -27 -24 -33 -37 -37 -84 -4 -50 -2
-58 28 -91 20 -23 44 -39 66 -43 28 -5 33 -10 29 -28 -2 -11 -12 -59 -21 -106
-34 -179 -119 -366 -174 -387 -15 -6 -36 -23 -46 -38 -20 -31 -23 -100 -6
-117 7 -7 -2 -33 -28 -82 -21 -39 -45 -95 -54 -125 -30 -103 -15 -240 36 -332
l20 -36 -26 -51 c-32 -64 -34 -105 -4 -126 20 -14 85 -16 518 -16 377 0 501 3
520 13 34 17 37 60 7 133 l-23 59 30 64 c54 118 46 256 -25 407 -28 59 -29 65
-15 86 20 29 20 97 0 126 -8 12 -28 29 -44 37 -54 28 -130 192 -176 379 -31
128 -30 132 5 139 17 4 44 19 62 35 64 58 44 174 -36 208 -32 13 -35 18 -35
54 0 22 9 55 21 75 15 24 20 47 17 72 -3 22 3 57 13 84 29 75 40 166 29 233
-13 82 -54 165 -144 288 -70 96 -76 108 -66 132 15 40 12 113 -5 146 -23 44
-53 60 -115 60 -34 0 -64 -6 -78 -16z m130 -61 c23 -20 24 -80 2 -126 l-16
-34 95 -132 c113 -156 139 -215 139 -321 1 -60 -5 -89 -27 -140 -29 -70 -29
-71 -19 -113 13 -54 2 -57 -226 -57 -196 0 -208 1 -225 21 -16 17 -17 25 -7
51 10 27 8 37 -20 92 -57 109 -41 238 43 371 l31 50 45 -90 c25 -50 47 -92 49
-94 3 -3 12 2 20 11 15 15 12 25 -37 116 l-53 100 58 66 58 66 -16 40 c-21 52
-20 99 1 122 20 23 80 24 105 1z m140 -1029 l3 -87 33 -2 c65 -5 95 -72 52
-115 -19 -19 -33 -20 -280 -20 -247 0 -261 1 -280 20 -44 44 -14 109 52 114
l33 2 3 87 3 87 189 0 189 0 3 -86z m-27 -291 c29 -174 98 -382 160 -478 l35
-55 -355 0 -354 0 40 75 c55 102 96 226 122 372 l22 123 162 0 162 0 6 -37z
m253 -575 c19 -19 15 -66 -7 -78 -13 -6 -163 -10 -420 -10 l-401 0 -16 25
c-15 23 -15 27 0 50 l16 25 408 0 c304 0 411 -3 420 -12z m-18 -140 c11 -18
34 -67 52 -108 28 -66 32 -86 32 -170 1 -85 -2 -101 -27 -152 l-28 -58 -445 0
-445 0 -26 57 c-51 112 -41 247 29 373 55 99 10 90 450 90 l388 0 20 -32z m53
-595 c9 -27 17 -51 17 -55 0 -5 -218 -8 -485 -8 -267 0 -485 2 -485 5 0 3 11
28 25 55 l25 50 443 0 443 0 17 -47z"/>
</g>
</svg>
