<?xml version="1.0" standalone="no"?>
<!DOCTYPE svg PUBLIC "-//W3C//DTD SVG 20010904//EN"
 "http://www.w3.org/TR/2001/REC-SVG-20010904/DTD/svg10.dtd">
<svg version="1.0" xmlns="http://www.w3.org/2000/svg"
 width="750.000000pt" height="1000.000000pt" viewBox="0 0 750.000000 1000.000000"
 preserveAspectRatio="xMidYMid meet">
<metadata>
Created by potrace 1.16, written by Peter Selinger 2001-2019
</metadata>
<g transform="translate(0.000000,1000.000000) scale(0.100000,-0.100000)"
fill="#000000" stroke="none">
<path d="M4751 6657 c-3 -60 -50 -123 -116 -153 -11 -5 -381 -11 -845 -14
l-825 -5 810 -3 c547 -1 822 2 848 9 76 21 146 110 134 171 -4 20 -4 19 -6 -5z"/>
<path d="M5021 5497 c-2 -56 -63 -140 -126 -175 -27 -15 -125 -17 -1080 -22
l-1050 -5 1051 -3 1050 -2 45 28 c77 49 127 128 116 184 -4 20 -4 19 -6 -5z"/>
<path d="M5492 2746 c-7 -19 -34 -53 -59 -76 l-46 -40 -1621 -2 -1621 -3 1610
-3 c886 -1 1620 0 1632 3 47 11 132 114 121 146 -2 6 -9 -5 -16 -25z"/>
<path d="M5741 1128 c-2 -37 -65 -217 -107 -306 -24 -51 -66 -134 -94 -183
l-51 -89 -1752 -3 -1752 -2 1756 -3 1755 -2 56 98 c30 53 70 129 88 167 44 95
112 302 107 323 -4 16 -5 16 -6 0z"/>
<path d="M3432 13 c406 -2 1070 -2 1475 0 406 1 74 2 -737 2 -811 0 -1143 -1
-738 -2z"/>
</g>
</svg>
