<?xml version="1.0" standalone="no"?>
<!DOCTYPE svg PUBLIC "-//W3C//DTD SVG 20010904//EN"
 "http://www.w3.org/TR/2001/REC-SVG-20010904/DTD/svg10.dtd">
<svg version="1.0" xmlns="http://www.w3.org/2000/svg"
 width="416.000000pt" height="416.000000pt" viewBox="0 0 416.000000 416.000000"
 preserveAspectRatio="xMidYMid meet">
<metadata>
Created by potrace 1.16, written by Peter Selinger 2001-2019
</metadata>
<g transform="translate(0.000000,416.000000) scale(0.100000,-0.100000)"
fill="#000000" stroke="none">
<path d="M0 2080 l0 -2080 2080 0 2080 0 0 2080 0 2080 -2080 0 -2080 0 0
-2080z m2486 1435 c8 -13 13 -29 9 -35 -4 -6 -7 -47 -7 -91 1 -78 2 -80 44
-137 126 -166 138 -188 147 -265 9 -83 15 -96 117 -258 41 -65 74 -126 74
-136 0 -22 -35 -75 -103 -158 -62 -75 -62 -75 -123 -75 -46 0 -52 3 -63 27
l-13 28 -14 -28 c-16 -30 -32 -33 -100 -16 -53 14 -59 24 -69 106 -8 71 -9 72
-107 80 -67 6 -68 5 -68 -18 1 -41 15 -88 92 -289 41 -107 103 -294 138 -415
129 -451 164 -536 304 -723 48 -64 83 -120 81 -130 -2 -9 -4 -67 -4 -128 l-1
-112 -47 -20 c-205 -88 -1198 -89 -1380 -1 l-43 21 0 131 0 131 44 111 c54
133 92 260 112 378 l15 88 -26 31 c-62 73 -91 164 -110 348 -32 298 -27 737
10 897 35 152 128 307 256 427 141 133 355 222 561 233 55 3 109 1 126 -5 24
-8 35 -7 58 9 40 26 70 24 90 -6z"/>
</g>
</svg>
