<?xml version="1.0" standalone="no"?>
<!DOCTYPE svg PUBLIC "-//W3C//DTD SVG 20010904//EN"
 "http://www.w3.org/TR/2001/REC-SVG-20010904/DTD/svg10.dtd">
<svg version="1.0" xmlns="http://www.w3.org/2000/svg"
 width="4676.000000pt" height="4675.000000pt" viewBox="0 0 4676.000000 4675.000000"
 preserveAspectRatio="xMidYMid meet">

<g transform="translate(0.000000,4675.000000) scale(0.100000,-0.100000)"
fill="#000000" stroke="none">
<path d="M23224 40020 c-232 -60 -412 -240 -470 -470 -54 -211 14 -458 170
-613 105 -106 273 -187 387 -187 19 0 39 -4 46 -8 6 -4 -263 -137 -630 -311
-353 -167 -645 -307 -649 -310 -4 -4 140 -459 321 -1011 181 -553 328 -1006
326 -1008 -2 -2 -345 98 -764 222 -418 124 -763 226 -766 226 -3 0 -5 -454 -5
-1010 0 -643 4 -1010 10 -1010 5 0 350 101 767 225 416 123 758 223 759 222 2
-1 -145 -452 -325 -1002 l-327 -1000 -204 -6 c-217 -6 -247 -12 -335 -64 -57
-33 -129 -111 -159 -170 -37 -76 -49 -136 -44 -230 4 -71 10 -95 41 -158 59
-119 180 -214 296 -233 23 -4 40 -8 39 -9 -2 -2 -73 -13 -158 -24 -210 -29
-537 -84 -750 -126 -419 -83 -591 -150 -785 -306 -230 -185 -385 -458 -431
-761 -18 -118 -14 -271 11 -390 8 -40 424 -1268 924 -2728 882 -2575 909
-2655 888 -2663 -108 -41 -168 -102 -187 -190 -31 -150 70 -282 225 -295 l65
-5 0 -44 c0 -75 -20 -234 -41 -325 l-21 -88 -367 0 c-209 0 -392 -4 -422 -10
-121 -23 -236 -101 -296 -201 -99 -165 -78 -377 50 -516 52 -57 87 -81 154
-108 l53 -22 -112 -6 c-189 -10 -315 -63 -434 -182 -125 -126 -180 -272 -171
-455 6 -130 42 -232 117 -332 72 -95 168 -165 289 -211 54 -21 77 -22 601 -27
l545 -5 41 -185 c114 -511 178 -955 226 -1550 17 -211 17 -1101 0 -1275 -29
-296 -84 -766 -117 -1000 -244 -1724 -701 -3367 -1372 -4937 l-105 -246 -192
-4 c-173 -3 -195 -5 -231 -25 -101 -54 -150 -158 -125 -262 10 -43 45 -90 275
-367 l263 -318 -158 -175 c-439 -491 -964 -922 -1530 -1258 -74 -44 -213 -126
-309 -183 -96 -57 -220 -137 -275 -178 -252 -188 -397 -393 -442 -630 -18 -96
-18 -272 1 -362 72 -341 352 -614 692 -674 55 -9 71 -15 53 -19 -14 -3 -60
-13 -102 -22 -93 -20 -238 -88 -317 -149 -141 -109 -242 -251 -302 -424 l-34
-97 -3 -517 -3 -518 5996 0 5996 0 -3 498 c-4 475 -5 501 -26 577 -92 334
-343 571 -677 640 -90 18 -104 25 -53 25 20 0 75 11 122 25 156 45 279 119
387 231 111 117 179 237 220 389 31 113 31 325 0 440 -45 168 -137 320 -273
450 -130 125 -244 204 -563 390 -273 160 -458 277 -645 411 -393 281 -773 622
-1085 974 -71 80 -132 146 -136 148 -4 2 107 141 248 310 140 169 263 325 274
347 49 105 -2 244 -109 297 -43 21 -65 23 -236 28 l-190 5 -58 135 c-683 1573
-1182 3434 -1412 5260 -82 650 -106 963 -106 1410 0 775 89 1543 268 2310 l18
75 509 5 510 5 80 32 c344 140 482 526 313 871 -42 86 -142 189 -223 230 -111
55 -154 64 -375 71 -113 4 -197 8 -187 9 64 6 204 116 251 196 77 131 74 320
-7 458 -39 67 -124 142 -192 169 -58 23 -71 23 -376 27 l-316 3 -17 77 c-19
94 -33 191 -41 298 l-6 81 51 6 c181 22 275 227 174 380 -27 41 -106 97 -136
97 -15 0 -17 5 -12 28 10 40 399 1181 1580 4632 120 349 226 669 236 710 29
113 35 312 14 440 -77 455 -386 809 -834 954 -178 57 -687 155 -1132 217 -145
20 -160 24 -122 31 117 20 248 121 302 232 105 217 18 487 -189 589 l-65 32
-212 3 -211 3 -125 382 c-69 210 -216 658 -327 996 -111 337 -200 615 -198
618 2 2 339 -96 748 -217 409 -121 749 -220 756 -220 11 0 13 195 13 1010 0
556 -3 1010 -7 1010 -5 0 -345 -99 -756 -221 -411 -122 -750 -219 -752 -217
-3 2 142 452 320 998 179 547 324 999 321 1005 -2 5 -292 147 -645 314 -352
167 -641 308 -641 313 0 4 15 8 33 8 52 0 146 28 227 68 100 49 220 167 273
269 135 259 91 559 -114 764 -59 60 -94 86 -161 118 -147 71 -309 89 -454 51z"/>
</g>
</svg>
