<?xml version="1.0" standalone="no"?>
<!DOCTYPE svg PUBLIC "-//W3C//DTD SVG 20010904//EN"
 "http://www.w3.org/TR/2001/REC-SVG-20010904/DTD/svg10.dtd">
<svg version="1.0" xmlns="http://www.w3.org/2000/svg"
 width="728.000000pt" height="1270.000000pt" viewBox="0 0 728.000000 1270.000000"
 preserveAspectRatio="xMidYMid meet">
<metadata>
Created by potrace 1.16, written by Peter Selinger 2001-2019
</metadata>
<g transform="translate(0.000000,1270.000000) scale(0.100000,-0.100000)"
fill="#000000" stroke="none">
<path d="M3447 12650 c-43 -28 -82 -50 -88 -50 -5 0 -9 -3 -9 -7 0 -5 -25 -21
-55 -38 -30 -16 -55 -29 -55 -30 0 0 11 -59 25 -131 13 -72 27 -143 31 -158
l6 -26 -286 0 -286 0 0 -361 0 -362 37 -46 c21 -25 46 -55 55 -65 10 -11 18
-25 18 -32 0 -20 26 -24 162 -24 l130 0 -7 -32 c-4 -18 -8 -34 -9 -35 -1 -1
-66 -11 -145 -23 -519 -76 -881 -224 -989 -405 -16 -27 -38 -83 -48 -123 -16
-64 -17 -83 -6 -165 7 -50 25 -138 42 -195 29 -100 173 -472 230 -596 70 -152
330 -761 330 -774 0 -4 -21 -28 -46 -52 -82 -79 -113 -181 -83 -271 15 -44 80
-127 124 -159 19 -14 35 -27 35 -30 0 -3 -21 -16 -47 -30 -101 -53 -233 -178
-262 -247 -8 -19 -33 -40 -84 -67 -189 -103 -317 -231 -361 -360 -23 -66 -21
-174 4 -237 90 -227 382 -411 841 -529 l127 -32 7 -255 c16 -569 -39 -1314
-140 -1873 -55 -303 -165 -785 -182 -800 -4 -3 -39 -19 -78 -35 -147 -61 -307
-190 -357 -289 -26 -50 -39 -189 -26 -276 15 -106 12 -286 -7 -370 -9 -41 -35
-113 -57 -159 -52 -106 -154 -210 -328 -337 -280 -203 -401 -338 -465 -522
-55 -158 -57 -174 -62 -668 l-5 -460 35 -70 c83 -163 207 -291 404 -417 77
-50 228 -128 290 -151 366 -136 571 -186 1002 -248 131 -19 206 -21 732 -25
490 -4 614 -2 750 12 484 48 960 156 1278 292 329 140 543 320 608 514 16 49
18 95 18 509 l0 455 -32 80 c-48 122 -100 232 -133 280 -17 24 -30 46 -30 49
0 2 -27 40 -59 83 -58 77 -216 235 -382 383 -233 207 -315 355 -349 633 -7 53
-10 123 -6 155 19 160 19 181 0 233 -40 110 -192 237 -379 318 l-100 42 -63
242 c-138 534 -212 948 -258 1457 -22 237 -25 847 -5 1065 7 83 14 151 15 153
2 1 47 14 102 28 245 63 484 163 623 262 288 205 334 461 123 684 -65 69 -185
156 -273 198 -34 17 -52 33 -66 64 -41 83 -156 187 -271 245 l-43 22 36 29
c87 69 126 135 133 221 5 71 -19 130 -82 197 l-46 49 44 124 c24 68 82 221
129 339 230 587 300 779 365 1010 17 58 43 127 58 154 34 61 38 149 9 209 -95
201 -501 372 -1045 442 -68 9 -125 17 -126 18 -1 1 -5 18 -9 37 l-6 35 163 -3
c89 -2 173 0 185 3 l23 5 0 363 0 362 -55 59 c-30 33 -57 68 -61 78 -5 16 -19
18 -175 18 -93 0 -169 3 -169 7 0 4 10 42 21 85 l21 79 -48 52 c-27 29 -59 65
-71 79 -12 14 -41 37 -65 51 -291 164 -276 161 -391 87z"/>
</g>
</svg>
