<?xml version="1.0" standalone="no"?>
<!DOCTYPE svg PUBLIC "-//W3C//DTD SVG 20010904//EN"
 "http://www.w3.org/TR/2001/REC-SVG-20010904/DTD/svg10.dtd">
<svg version="1.0" xmlns="http://www.w3.org/2000/svg"
 width="4676.000000pt" height="4676.000000pt" viewBox="0 0 4676.000000 4676.000000"
 preserveAspectRatio="xMidYMid meet">

<g transform="translate(0.000000,4676.000000) scale(0.100000,-0.100000)"
fill="#000000" stroke="none">
<path d="M22963 35905 c-443 -50 -842 -172 -1230 -375 -330 -173 -596 -372
-868 -651 -541 -555 -860 -1228 -957 -2019 -17 -139 -17 -621 0 -760 64 -524
216 -965 492 -1430 276 -464 721 -896 1215 -1181 129 -74 338 -175 447 -215
43 -16 78 -31 78 -34 0 -3 -69 -22 -152 -43 -503 -127 -1114 -382 -1563 -651
-89 -54 -129 -85 -157 -121 -114 -151 -63 -374 107 -463 49 -26 54 -26 325
-33 295 -8 343 -15 475 -73 286 -127 507 -460 489 -736 -2 -36 -9 -162 -14
-280 -115 -2365 -677 -4761 -1632 -6957 l-70 -163 -352 0 c-195 0 -370 -5
-394 -10 -161 -38 -271 -166 -280 -329 -8 -138 -14 -128 429 -663 217 -262
399 -478 406 -480 13 -3 -13 -69 -100 -248 -195 -401 -445 -755 -767 -1084
-260 -265 -481 -446 -820 -671 -102 -68 -252 -162 -335 -210 -82 -48 -152 -91
-155 -95 -3 -3 -41 -31 -84 -60 -166 -111 -328 -294 -424 -479 -108 -207 -146
-368 -145 -611 0 -230 36 -387 135 -585 196 -393 562 -654 1009 -719 52 -8 80
-14 63 -15 -129 -4 -321 -59 -480 -136 -363 -176 -609 -496 -710 -925 -16 -67
-18 -152 -21 -823 l-4 -747 6461 0 6461 0 -4 747 c-4 815 -1 778 -64 978 -28
88 -105 249 -154 323 -230 338 -603 556 -994 579 l-110 7 106 17 c493 82 884
407 1047 869 56 159 67 235 66 445 -1 178 -3 197 -31 305 -87 331 -283 606
-558 786 -32 21 -66 45 -75 52 -8 8 -91 58 -183 113 -924 542 -1564 1221
-1933 2049 l-57 129 21 18 c11 10 190 223 397 473 241 290 386 474 402 508 31
66 35 171 10 247 -33 97 -130 195 -225 227 -25 8 -162 14 -432 17 l-395 6 -63
145 c-251 575 -555 1411 -757 2085 -484 1610 -793 3453 -851 5075 -8 221 1
271 77 425 87 179 206 299 384 385 168 83 163 82 725 89 l495 6 55 31 c170 96
213 330 85 472 -100 111 -629 387 -1065 554 -276 106 -653 218 -920 273 -74
15 -142 29 -150 32 -8 2 49 35 127 73 244 117 466 258 678 426 137 109 405
376 511 509 426 534 668 1111 750 1785 24 195 24 590 1 780 -72 577 -257 1075
-571 1540 -276 408 -687 797 -1091 1030 -416 241 -814 381 -1285 452 -178 26
-662 34 -847 13z"/>
</g>
</svg>
